<svg width="16" height="16" fill="none" xmlns="http://www.w3.org/2000/svg">

    <!-- Иконка статей -->
    <symbol id="articles" viewBox="0 0 96 96" fill="currentColor">
        <g>
            <path d="M90,0H30a5.9966,5.9966,0,0,0-6,6V24H6a5.9966,5.9966,0,0,0-6,6V78A18.02,18.02,0,0,0,18,96H78A18.02,18.02,0,0,0,96,78V6A5.9966,5.9966,0,0,0,90,0ZM12,36H24V78a6,6,0,0,1-12,0ZM84,78a6.0116,6.0116,0,0,1-6,6H34.8948A17.7918,17.7918,0,0,0,36,78V12H84Z"/>
            <path d="M54,36H66a6,6,0,0,0,0-12H54a6,6,0,0,0,0,12Z"/>
            <path d="M66,48H54a6,6,0,0,0,0,12H66a6,6,0,0,0,0-12Z"/>
        </g>
    </symbol>

    <!-- Иконка категорий -->
    <symbol id="categories" viewBox="0 0 32 32" fill="currentColor">
        <defs>
            <style>.cls-1{fill:none;}</style>
        </defs>
        <title>collapse-categories</title>
        <rect x="14" y="25" width="14" height="2"/>
        <polygon points="7.17 26 4.59 28.58 6 30 10 26 6 22 4.58 23.41 7.17 26"/>
        <rect x="14" y="15" width="14" height="2"/>
        <polygon points="7.17 16 4.59 18.58 6 20 10 16 6 12 4.58 13.41 7.17 16"/>
        <rect x="14" y="5" width="14" height="2"/>
        <polygon points="7.17 6 4.59 8.58 6 10 10 6 6 2 4.58 3.41 7.17 6"/>
        <rect id="_Transparent_Rectangle_" data-name="&lt;Transparent Rectangle&gt;" class="cls-1" width="32" height="32"/>
    </symbol>

    <!-- Иконка выхода -->
    <symbol id="exit" viewBox="0 0 16 16" fill="currentColor">
        <path d="M12.207 9H5V7h7.136L11.05 5.914 12.464 4.5 16 8.036l-3.536 3.535-1.414-1.414L12.207 9zM10 4H8V2H2v12h6v-2h2v4H0V0h10v4z" fill-rule="evenodd"/>
    </symbol>
</svg>