<svg xmlns="http://www.w3.org/2000/svg" xmlns:v="https://svgstorm.com"
viewBox = "0 0 500 500"
width="500"
height="500">
<g fill="None" fill-opacity="0.0" stroke="#FEFDFC" stroke-opacity="1.00" stroke-width="0.3"><path d="
M 0.00 500.00 
L 500.00 500.00
L 500.00 0.00
L 0.00 0.00
L 0.00 500.00
M 247.00 148.00 
C 293.36 98.16 355.76 67.32 425.00 72.00
C 424.96 85.25 425.05 98.78 425.00 112.00 C 424.95 125.22 425.09 138.88 425.00 152.00 C 424.91 165.12 425.20 179.13 425.00 192.00 C 424.80 204.87 425.45 219.68 425.00 232.00 C 424.55 244.32 429.37 262.74 417.00 264.00 C 404.63 265.26 395.10 268.89 383.98 270.98 C 372.85 273.06 364.06 277.33 354.31 281.31 C 344.55 285.29 336.55 289.90 327.77 294.77 C 318.99 299.65 312.13 305.48 304.25 311.25 C 296.37 317.02 290.12 323.11 283.25 330.25 C 276.38 337.39 270.68 343.99 264.75 351.75 C 258.82 359.51 254.08 368.65 249.00 377.00
C 211.84 313.62 144.13 269.98 72.00 263.00
C 72.00 199.00 72.00 135.00 72.00 71.00
C 139.20 69.00 202.87 96.19 247.00 148.00
M 457.00 145.00 
C 457.00 207.00 457.00 269.00 457.00 331.00
C 386.89 328.18 318.03 348.08 267.00 396.00
C 301.01 348.00 357.31 320.48 414.00 315.00
C 421.24 314.30 430.04 313.44 438.00 314.00
C 438.00 247.67 438.00 181.33 438.00 115.00
C 444.33 115.00 450.67 115.00 457.00 115.00
C 457.00 125.00 457.00 135.00 457.00 145.00
M 202.00 365.00 
C 214.00 373.40 226.89 388.29 232.00 400.00
C 223.69 392.24 215.36 384.08 207.00 377.00
C 156.93 344.70 100.73 326.81 39.00 331.00
C 39.00 259.67 39.00 188.33 39.00 117.00
C 45.67 117.00 52.33 117.00 59.00 117.00
C 59.00 182.33 59.00 247.67 59.00 313.00
C 112.20 311.81 161.22 333.03 202.00 365.00
M 26.00 146.00 
C 25.96 156.37 26.05 166.62 26.00 177.00 C 25.95 187.38 26.10 197.57 26.00 208.00 C 25.90 218.43 26.21 228.46 26.00 239.00 C 25.79 249.54 26.45 259.21 26.00 270.00 C 25.55 280.79 27.00 289.65 26.00 301.00 C 25.00 312.35 28.22 319.42 26.00 332.00 C 23.78 344.58 35.76 343.51 46.00 343.00 C 56.24 342.49 65.42 344.49 75.00 345.00 C 84.58 345.51 94.46 345.90 103.22 347.78 C 111.98 349.66 120.51 351.03 128.67 353.33 C 136.84 355.62 143.70 358.73 151.23 361.77 C 158.76 364.81 165.72 367.41 172.69 371.31 C 179.67 375.20 186.40 377.39 192.75 382.25 C 199.09 387.12 204.79 389.32 210.70 395.30 C 216.60 401.29 220.94 403.29 225.30 411.70 C 229.66 420.10 241.45 414.63 250.00 416.00 C 258.55 417.37 266.78 418.23 270.92 409.92 C 275.06 401.61 281.21 400.52 286.70 394.70 C 292.18 388.88 298.83 386.63 305.08 382.08 C 311.33 377.53 318.04 374.48 325.08 371.08 C 332.11 367.67 338.32 363.48 346.08 361.08 C 353.83 358.67 360.81 354.73 369.22 353.22 C 377.63 351.71 385.17 348.50 394.07 347.07 C 402.98 345.65 412.13 343.83 422.00 344.00 C 431.88 344.17 442.22 342.18 453.00 344.00 C 463.78 345.82 472.23 344.75 470.00 332.00 C 467.77 319.25 471.01 312.43 470.00 301.00 C 468.99 289.57 470.46 280.83 470.00 270.00 C 469.54 259.17 470.21 249.56 470.00 239.00 C 469.79 228.44 470.10 218.44 470.00 208.00 C 469.90 197.56 470.05 187.39 470.00 177.00 C 469.95 166.61 470.04 156.37 470.00 146.00
C 482.32 144.21 493.89 144.69 492.00 158.00 C 490.11 171.31 492.86 180.62 492.00 193.00 C 491.14 205.38 492.40 216.07 492.00 228.00 C 491.60 239.93 492.18 250.27 492.00 262.00 C 491.82 273.73 492.08 285.30 492.00 297.00 C 491.92 308.70 492.04 320.32 492.00 332.00 C 491.96 343.68 492.03 355.32 492.00 367.00
C 413.62 359.04 323.81 374.80 276.00 442.00
C 266.28 437.82 253.82 435.36 243.00 436.00 C 232.18 436.65 220.52 444.24 214.70 434.30 C 208.88 424.37 202.32 421.33 194.75 414.25 C 187.19 407.17 180.51 402.44 171.75 397.25 C 163.00 392.05 154.49 388.09 144.78 384.22 C 135.06 380.35 125.40 377.51 114.93 374.07 C 104.45 370.64 92.57 369.68 81.00 368.00 C 69.42 366.33 56.48 365.13 44.00 365.00 C 31.52 364.87 16.70 365.10 4.00 365.00
C 3.96 353.58 4.05 342.44 4.00 331.00 C 3.95 319.56 4.09 308.55 4.00 297.00 C 3.91 285.45 4.20 273.67 4.00 262.00 C 3.80 250.33 4.44 239.91 4.00 228.00 C 3.56 216.09 4.95 205.39 4.00 193.00 C 3.05 180.61 6.18 172.53 4.00 159.00 C 1.82 145.47 12.96 143.60 26.00 146.00
M 239.00 389.00 
C 233.68 382.84 229.19 375.68 223.25 369.75 C 217.30 363.83 212.00 357.67 205.25 352.75 C 198.50 347.83 192.22 342.46 184.77 338.23 C 177.32 334.00 170.38 329.72 162.31 325.69 C 154.23 321.67 146.98 318.03 137.92 315.08 C 128.87 312.12 121.66 308.39 111.33 306.67 C 100.99 304.95 93.25 301.65 81.00 302.00 C 68.75 302.36 69.94 287.06 71.00 276.00
C 139.85 281.97 209.60 324.44 239.00 389.00
M 425.00 276.00 
C 424.41 285.17 429.05 304.37 417.00 303.00 C 404.95 301.63 396.62 305.82 386.33 307.33 C 376.03 308.84 368.06 311.99 358.93 314.93 C 349.79 317.86 341.68 321.72 333.31 325.31 C 324.93 328.89 318.69 333.86 311.25 338.25 C 303.82 342.64 297.32 347.27 290.75 352.75 C 284.19 358.23 278.63 363.46 272.75 369.75 C 266.87 376.04 263.41 384.33 257.00 390.00
C 286.97 325.05 355.16 281.16 425.00 276.00 Z"/>
</g>
<g fill="None" fill-opacity="0.0" stroke="#B6955A" stroke-opacity="1.00" stroke-width="0.3"><path d="
M 247.00 148.00 
C 202.87 96.19 139.20 69.00 72.00 71.00
C 72.00 135.00 72.00 199.00 72.00 263.00
C 144.13 269.98 211.84 313.62 249.00 377.00
C 254.08 368.65 258.82 359.51 264.75 351.75 C 270.68 343.99 276.38 337.39 283.25 330.25 C 290.12 323.11 296.37 317.02 304.25 311.25 C 312.13 305.48 318.99 299.65 327.77 294.77 C 336.55 289.90 344.55 285.29 354.31 281.31 C 364.06 277.33 372.85 273.06 383.98 270.98 C 395.10 268.89 404.63 265.26 417.00 264.00 C 429.37 262.74 424.55 244.32 425.00 232.00 C 425.45 219.68 424.80 204.87 425.00 192.00 C 425.20 179.13 424.91 165.12 425.00 152.00 C 425.09 138.88 424.95 125.22 425.00 112.00 C 425.05 98.78 424.96 85.25 425.00 72.00
C 355.76 67.32 293.36 98.16 247.00 148.00
M 242.00 346.00 
C 235.15 340.75 231.67 333.42 225.75 327.25 C 219.84 321.08 214.06 315.89 207.75 310.25 C 201.44 304.61 195.16 299.79 188.25 294.75 C 181.35 289.70 174.68 285.22 166.92 281.08 C 159.16 276.94 151.73 273.26 143.31 269.69 C 134.88 266.13 126.51 262.50 117.31 259.69 C 108.10 256.89 99.06 255.02 88.98 253.02 C 78.89 251.03 83.69 234.44 83.00 224.00 C 82.31 213.56 83.31 200.13 83.00 189.00 C 82.69 177.87 83.14 165.47 83.00 154.00 C 82.86 142.53 83.07 130.67 83.00 119.00 C 82.93 107.33 83.06 94.76 83.00 83.00
C 96.23 83.23 112.32 84.70 124.67 87.33 C 137.02 89.96 149.16 94.12 160.22 98.78 C 171.28 103.43 181.60 108.21 191.23 114.77 C 200.86 121.33 210.07 126.12 217.75 135.25 C 225.43 144.38 234.92 148.34 240.25 159.75 C 245.58 171.16 240.74 190.89 242.00 205.00 C 243.26 219.11 241.41 237.06 242.00 252.00 C 242.59 266.94 241.69 283.71 242.00 299.00 C 242.31 314.29 241.77 330.62 242.00 346.00
M 413.00 253.00 
C 380.44 254.90 347.19 270.08 319.92 285.92 C 292.65 301.76 274.38 323.53 254.00 346.00
C 253.98 333.04 254.02 319.95 254.00 307.00 C 253.98 294.05 254.04 280.90 254.00 268.00 C 253.96 255.10 254.09 240.67 254.00 228.00 C 253.91 215.33 254.20 201.09 254.00 189.00 C 253.80 176.91 252.19 163.11 259.75 154.75 C 267.31 146.40 271.14 142.09 278.75 134.75 C 286.37 127.41 292.65 122.75 301.08 117.08 C 309.52 111.41 316.76 107.44 326.22 103.22 C 335.68 99.01 344.73 95.37 355.02 92.02 C 365.32 88.68 375.71 87.44 387.00 85.00 C 398.30 82.56 415.49 79.47 413.00 95.00 C 410.51 110.53 414.10 119.78 413.00 134.00 C 411.90 148.22 413.53 160.32 413.00 174.00 C 412.47 187.68 413.27 199.55 413.00 213.00 C 412.73 226.45 413.20 239.58 413.00 253.00 Z"/>
</g>
<g fill="None" fill-opacity="0.0" stroke="#FEFDFD" stroke-opacity="1.00" stroke-width="0.3"><path d="
M 242.00 346.00 
C 241.77 330.62 242.31 314.29 242.00 299.00 C 241.69 283.71 242.59 266.94 242.00 252.00 C 241.41 237.06 243.26 219.11 242.00 205.00 C 240.74 190.89 245.58 171.16 240.25 159.75 C 234.92 148.34 225.43 144.38 217.75 135.25 C 210.07 126.12 200.86 121.33 191.23 114.77 C 181.60 108.21 171.28 103.43 160.22 98.78 C 149.16 94.12 137.02 89.96 124.67 87.33 C 112.32 84.70 96.23 83.23 83.00 83.00
C 83.06 94.76 82.93 107.33 83.00 119.00 C 83.07 130.67 82.86 142.53 83.00 154.00 C 83.14 165.47 82.69 177.87 83.00 189.00 C 83.31 200.13 82.31 213.56 83.00 224.00 C 83.69 234.44 78.89 251.03 88.98 253.02 C 99.06 255.02 108.10 256.89 117.31 259.69 C 126.51 262.50 134.88 266.13 143.31 269.69 C 151.73 273.26 159.16 276.94 166.92 281.08 C 174.68 285.22 181.35 289.70 188.25 294.75 C 195.16 299.79 201.44 304.61 207.75 310.25 C 214.06 315.89 219.84 321.08 225.75 327.25 C 231.67 333.42 235.15 340.75 242.00 346.00 Z"/>
</g>
<g fill="None" fill-opacity="0.0" stroke="#FEFDFC" stroke-opacity="1.00" stroke-width="0.3"><path d="
M 413.00 253.00 
C 413.20 239.58 412.73 226.45 413.00 213.00 C 413.27 199.55 412.47 187.68 413.00 174.00 C 413.53 160.32 411.90 148.22 413.00 134.00 C 414.10 119.78 410.51 110.53 413.00 95.00 C 415.49 79.47 398.30 82.56 387.00 85.00 C 375.71 87.44 365.32 88.68 355.02 92.02 C 344.73 95.37 335.68 99.01 326.22 103.22 C 316.76 107.44 309.52 111.41 301.08 117.08 C 292.65 122.75 286.37 127.41 278.75 134.75 C 271.14 142.09 267.31 146.40 259.75 154.75 C 252.19 163.11 253.80 176.91 254.00 189.00 C 254.20 201.09 253.91 215.33 254.00 228.00 C 254.09 240.67 253.96 255.10 254.00 268.00 C 254.04 280.90 253.98 294.05 254.00 307.00 C 254.02 319.95 253.98 333.04 254.00 346.00
C 274.38 323.53 292.65 301.76 319.92 285.92 C 347.19 270.08 380.44 254.90 413.00 253.00 Z"/>
</g>
<g fill="None" fill-opacity="0.0" stroke="#C4AA7E" stroke-opacity="1.00" stroke-width="0.3"><path d="
M 414.00 315.00 
C 426.65 315.00 441.05 317.97 439.00 303.00 C 436.95 288.03 439.90 279.58 439.00 266.00 C 438.10 252.42 439.42 240.99 439.00 228.00 C 438.58 215.01 439.20 203.69 439.00 191.00 C 438.80 178.31 439.10 166.62 439.00 154.00 C 438.90 141.38 439.08 128.63 439.00 116.00
C 444.67 116.00 450.33 116.00 456.00 116.00
C 456.66 125.50 454.67 136.32 457.00 145.00
C 457.00 135.00 457.00 125.00 457.00 115.00
C 450.67 115.00 444.33 115.00 438.00 115.00
C 438.00 181.33 438.00 247.67 438.00 314.00
C 430.04 313.44 421.24 314.30 414.00 315.00 Z"/>
</g>
<g fill="None" fill-opacity="0.0" stroke="#B69355" stroke-opacity="1.00" stroke-width="0.3"><path d="
M 414.00 315.00 
C 357.31 320.48 301.01 348.00 267.00 396.00
C 318.03 348.08 386.89 328.18 457.00 331.00
C 457.00 269.00 457.00 207.00 457.00 145.00
C 454.67 136.32 456.66 125.50 456.00 116.00
C 450.33 116.00 444.67 116.00 439.00 116.00
C 439.08 128.63 438.90 141.38 439.00 154.00 C 439.10 166.62 438.80 178.31 439.00 191.00 C 439.20 203.69 438.58 215.01 439.00 228.00 C 439.42 240.99 438.10 252.42 439.00 266.00 C 439.90 279.58 436.95 288.03 439.00 303.00 C 441.05 317.97 426.65 315.00 414.00 315.00 Z"/>
</g>
<g fill="None" fill-opacity="0.0" stroke="#B69456" stroke-opacity="1.00" stroke-width="0.3"><path d="
M 207.00 377.00 
C 214.16 381.62 220.51 387.38 227.00 393.00
C 221.49 382.13 209.52 374.79 202.00 365.00
C 161.22 333.03 112.20 311.81 59.00 313.00
C 59.00 247.67 59.00 182.33 59.00 117.00
C 52.33 117.00 45.67 117.00 39.00 117.00
C 39.00 188.33 39.00 259.67 39.00 331.00
C 100.73 326.81 156.93 344.70 207.00 377.00 Z"/>
</g>
<g fill="None" fill-opacity="0.0" stroke="#B79356" stroke-opacity="1.00" stroke-width="0.3"><path d="
M 26.00 146.00 
C 12.96 143.60 1.82 145.47 4.00 159.00 C 6.18 172.53 3.05 180.61 4.00 193.00 C 4.95 205.39 3.56 216.09 4.00 228.00 C 4.44 239.91 3.80 250.33 4.00 262.00 C 4.20 273.67 3.91 285.45 4.00 297.00 C 4.09 308.55 3.95 319.56 4.00 331.00 C 4.05 342.44 3.96 353.58 4.00 365.00
C 16.70 365.10 31.52 364.87 44.00 365.00 C 56.48 365.13 69.42 366.33 81.00 368.00 C 92.57 369.68 104.45 370.64 114.93 374.07 C 125.40 377.51 135.06 380.35 144.78 384.22 C 154.49 388.09 163.00 392.05 171.75 397.25 C 180.51 402.44 187.19 407.17 194.75 414.25 C 202.32 421.33 208.88 424.37 214.70 434.30 C 220.52 444.24 232.18 436.65 243.00 436.00 C 253.82 435.36 266.28 437.82 276.00 442.00
C 323.81 374.80 413.62 359.04 492.00 367.00
C 492.03 355.32 491.96 343.68 492.00 332.00 C 492.04 320.32 491.92 308.70 492.00 297.00 C 492.08 285.30 491.82 273.73 492.00 262.00 C 492.18 250.27 491.60 239.93 492.00 228.00 C 492.40 216.07 491.14 205.38 492.00 193.00 C 492.86 180.62 490.11 171.31 492.00 158.00 C 493.89 144.69 482.32 144.21 470.00 146.00
C 470.04 156.37 469.95 166.61 470.00 177.00 C 470.05 187.39 469.90 197.56 470.00 208.00 C 470.10 218.44 469.79 228.44 470.00 239.00 C 470.21 249.56 469.54 259.17 470.00 270.00 C 470.46 280.83 468.99 289.57 470.00 301.00 C 471.01 312.43 467.77 319.25 470.00 332.00 C 472.23 344.75 463.78 345.82 453.00 344.00 C 442.22 342.18 431.88 344.17 422.00 344.00 C 412.13 343.83 402.98 345.65 394.07 347.07 C 385.17 348.50 377.63 351.71 369.22 353.22 C 360.81 354.73 353.83 358.67 346.08 361.08 C 338.32 363.48 332.11 367.67 325.08 371.08 C 318.04 374.48 311.33 377.53 305.08 382.08 C 298.83 386.63 292.18 388.88 286.70 394.70 C 281.21 400.52 275.06 401.61 270.92 409.92 C 266.78 418.23 258.55 417.37 250.00 416.00 C 241.45 414.63 229.66 420.10 225.30 411.70 C 220.94 403.29 216.60 401.29 210.70 395.30 C 204.79 389.32 199.09 387.12 192.75 382.25 C 186.40 377.39 179.67 375.20 172.69 371.31 C 165.72 367.41 158.76 364.81 151.23 361.77 C 143.70 358.73 136.84 355.62 128.67 353.33 C 120.51 351.03 111.98 349.66 103.22 347.78 C 94.46 345.90 84.58 345.51 75.00 345.00 C 65.42 344.49 56.24 342.49 46.00 343.00 C 35.76 343.51 23.78 344.58 26.00 332.00 C 28.22 319.42 25.00 312.35 26.00 301.00 C 27.00 289.65 25.55 280.79 26.00 270.00 C 26.45 259.21 25.79 249.54 26.00 239.00 C 26.21 228.46 25.90 218.43 26.00 208.00 C 26.10 197.57 25.95 187.38 26.00 177.00 C 26.05 166.62 25.96 156.37 26.00 146.00 Z"/>
</g>
<g fill="None" fill-opacity="0.0" stroke="#B79559" stroke-opacity="1.00" stroke-width="0.3"><path d="
M 239.00 389.00 
C 209.60 324.44 139.85 281.97 71.00 276.00
C 69.94 287.06 68.75 302.36 81.00 302.00 C 93.25 301.65 100.99 304.95 111.33 306.67 C 121.66 308.39 128.87 312.12 137.92 315.08 C 146.98 318.03 154.23 321.67 162.31 325.69 C 170.38 329.72 177.32 334.00 184.77 338.23 C 192.22 342.46 198.50 347.83 205.25 352.75 C 212.00 357.67 217.30 363.83 223.25 369.75 C 229.19 375.68 233.68 382.84 239.00 389.00 Z"/>
</g>
<g fill="None" fill-opacity="0.0" stroke="#B7965A" stroke-opacity="1.00" stroke-width="0.3"><path d="
M 425.00 276.00 
C 355.16 281.16 286.97 325.05 257.00 390.00
C 263.41 384.33 266.87 376.04 272.75 369.75 C 278.63 363.46 284.19 358.23 290.75 352.75 C 297.32 347.27 303.82 342.64 311.25 338.25 C 318.69 333.86 324.93 328.89 333.31 325.31 C 341.68 321.72 349.79 317.86 358.93 314.93 C 368.06 311.99 376.03 308.84 386.33 307.33 C 396.62 305.82 404.95 301.63 417.00 303.00 C 429.05 304.37 424.41 285.17 425.00 276.00 Z"/>
</g>
<g fill="None" fill-opacity="0.0" stroke="#EEE5D0" stroke-opacity="1.00" stroke-width="0.3"><path d="
M 207.00 377.00 
C 215.36 384.08 223.69 392.24 232.00 400.00
C 226.89 388.29 214.00 373.40 202.00 365.00
C 209.52 374.79 221.49 382.13 227.00 393.00
C 220.51 387.38 214.16 381.62 207.00 377.00 Z"/>
</g>
<g fill="#FEFDFC" fill-opacity="1.00" stroke="None">
<path d="
M 0.00 500.00 
L 500.00 500.00
L 500.00 0.00
L 0.00 0.00
L 0.00 500.00
M 247.00 148.00 
C 293.36 98.16 355.76 67.32 425.00 72.00
C 424.96 85.25 425.05 98.78 425.00 112.00 C 424.95 125.22 425.09 138.88 425.00 152.00 C 424.91 165.12 425.20 179.13 425.00 192.00 C 424.80 204.87 425.45 219.68 425.00 232.00 C 424.55 244.32 429.37 262.74 417.00 264.00 C 404.63 265.26 395.10 268.89 383.98 270.98 C 372.85 273.06 364.06 277.33 354.31 281.31 C 344.55 285.29 336.55 289.90 327.77 294.77 C 318.99 299.65 312.13 305.48 304.25 311.25 C 296.37 317.02 290.12 323.11 283.25 330.25 C 276.38 337.39 270.68 343.99 264.75 351.75 C 258.82 359.51 254.08 368.65 249.00 377.00
C 211.84 313.62 144.13 269.98 72.00 263.00
C 72.00 199.00 72.00 135.00 72.00 71.00
C 139.20 69.00 202.87 96.19 247.00 148.00
M 457.00 145.00 
C 457.00 207.00 457.00 269.00 457.00 331.00
C 386.89 328.18 318.03 348.08 267.00 396.00
C 301.01 348.00 357.31 320.48 414.00 315.00
C 421.24 314.30 430.04 313.44 438.00 314.00
C 438.00 247.67 438.00 181.33 438.00 115.00
C 444.33 115.00 450.67 115.00 457.00 115.00
C 457.00 125.00 457.00 135.00 457.00 145.00
M 202.00 365.00 
C 214.00 373.40 226.89 388.29 232.00 400.00
C 223.69 392.24 215.36 384.08 207.00 377.00
C 156.93 344.70 100.73 326.81 39.00 331.00
C 39.00 259.67 39.00 188.33 39.00 117.00
C 45.67 117.00 52.33 117.00 59.00 117.00
C 59.00 182.33 59.00 247.67 59.00 313.00
C 112.20 311.81 161.22 333.03 202.00 365.00
M 26.00 146.00 
C 25.96 156.37 26.05 166.62 26.00 177.00 C 25.95 187.38 26.10 197.57 26.00 208.00 C 25.90 218.43 26.21 228.46 26.00 239.00 C 25.79 249.54 26.45 259.21 26.00 270.00 C 25.55 280.79 27.00 289.65 26.00 301.00 C 25.00 312.35 28.22 319.42 26.00 332.00 C 23.78 344.58 35.76 343.51 46.00 343.00 C 56.24 342.49 65.42 344.49 75.00 345.00 C 84.58 345.51 94.46 345.90 103.22 347.78 C 111.98 349.66 120.51 351.03 128.67 353.33 C 136.84 355.62 143.70 358.73 151.23 361.77 C 158.76 364.81 165.72 367.41 172.69 371.31 C 179.67 375.20 186.40 377.39 192.75 382.25 C 199.09 387.12 204.79 389.32 210.70 395.30 C 216.60 401.29 220.94 403.29 225.30 411.70 C 229.66 420.10 241.45 414.63 250.00 416.00 C 258.55 417.37 266.78 418.23 270.92 409.92 C 275.06 401.61 281.21 400.52 286.70 394.70 C 292.18 388.88 298.83 386.63 305.08 382.08 C 311.33 377.53 318.04 374.48 325.08 371.08 C 332.11 367.67 338.32 363.48 346.08 361.08 C 353.83 358.67 360.81 354.73 369.22 353.22 C 377.63 351.71 385.17 348.50 394.07 347.07 C 402.98 345.65 412.13 343.83 422.00 344.00 C 431.88 344.17 442.22 342.18 453.00 344.00 C 463.78 345.82 472.23 344.75 470.00 332.00 C 467.77 319.25 471.01 312.43 470.00 301.00 C 468.99 289.57 470.46 280.83 470.00 270.00 C 469.54 259.17 470.21 249.56 470.00 239.00 C 469.79 228.44 470.10 218.44 470.00 208.00 C 469.90 197.56 470.05 187.39 470.00 177.00 C 469.95 166.61 470.04 156.37 470.00 146.00
C 482.32 144.21 493.89 144.69 492.00 158.00 C 490.11 171.31 492.86 180.62 492.00 193.00 C 491.14 205.38 492.40 216.07 492.00 228.00 C 491.60 239.93 492.18 250.27 492.00 262.00 C 491.82 273.73 492.08 285.30 492.00 297.00 C 491.92 308.70 492.04 320.32 492.00 332.00 C 491.96 343.68 492.03 355.32 492.00 367.00
C 413.62 359.04 323.81 374.80 276.00 442.00
C 266.28 437.82 253.82 435.36 243.00 436.00 C 232.18 436.65 220.52 444.24 214.70 434.30 C 208.88 424.37 202.32 421.33 194.75 414.25 C 187.19 407.17 180.51 402.44 171.75 397.25 C 163.00 392.05 154.49 388.09 144.78 384.22 C 135.06 380.35 125.40 377.51 114.93 374.07 C 104.45 370.64 92.57 369.68 81.00 368.00 C 69.42 366.33 56.48 365.13 44.00 365.00 C 31.52 364.87 16.70 365.10 4.00 365.00
C 3.96 353.58 4.05 342.44 4.00 331.00 C 3.95 319.56 4.09 308.55 4.00 297.00 C 3.91 285.45 4.20 273.67 4.00 262.00 C 3.80 250.33 4.44 239.91 4.00 228.00 C 3.56 216.09 4.95 205.39 4.00 193.00 C 3.05 180.61 6.18 172.53 4.00 159.00 C 1.82 145.47 12.96 143.60 26.00 146.00
M 239.00 389.00 
C 233.68 382.84 229.19 375.68 223.25 369.75 C 217.30 363.83 212.00 357.67 205.25 352.75 C 198.50 347.83 192.22 342.46 184.77 338.23 C 177.32 334.00 170.38 329.72 162.31 325.69 C 154.23 321.67 146.98 318.03 137.92 315.08 C 128.87 312.12 121.66 308.39 111.33 306.67 C 100.99 304.95 93.25 301.65 81.00 302.00 C 68.75 302.36 69.94 287.06 71.00 276.00
C 139.85 281.97 209.60 324.44 239.00 389.00
M 425.00 276.00 
C 424.41 285.17 429.05 304.37 417.00 303.00 C 404.95 301.63 396.62 305.82 386.33 307.33 C 376.03 308.84 368.06 311.99 358.93 314.93 C 349.79 317.86 341.68 321.72 333.31 325.31 C 324.93 328.89 318.69 333.86 311.25 338.25 C 303.82 342.64 297.32 347.27 290.75 352.75 C 284.19 358.23 278.63 363.46 272.75 369.75 C 266.87 376.04 263.41 384.33 257.00 390.00
C 286.97 325.05 355.16 281.16 425.00 276.00 Z"/>
</g>
<g fill="#B6955A" fill-opacity="1.00" stroke="None">
<path d="
M 247.00 148.00 
C 202.87 96.19 139.20 69.00 72.00 71.00
C 72.00 135.00 72.00 199.00 72.00 263.00
C 144.13 269.98 211.84 313.62 249.00 377.00
C 254.08 368.65 258.82 359.51 264.75 351.75 C 270.68 343.99 276.38 337.39 283.25 330.25 C 290.12 323.11 296.37 317.02 304.25 311.25 C 312.13 305.48 318.99 299.65 327.77 294.77 C 336.55 289.90 344.55 285.29 354.31 281.31 C 364.06 277.33 372.85 273.06 383.98 270.98 C 395.10 268.89 404.63 265.26 417.00 264.00 C 429.37 262.74 424.55 244.32 425.00 232.00 C 425.45 219.68 424.80 204.87 425.00 192.00 C 425.20 179.13 424.91 165.12 425.00 152.00 C 425.09 138.88 424.95 125.22 425.00 112.00 C 425.05 98.78 424.96 85.25 425.00 72.00
C 355.76 67.32 293.36 98.16 247.00 148.00
M 242.00 346.00 
C 235.15 340.75 231.67 333.42 225.75 327.25 C 219.84 321.08 214.06 315.89 207.75 310.25 C 201.44 304.61 195.16 299.79 188.25 294.75 C 181.35 289.70 174.68 285.22 166.92 281.08 C 159.16 276.94 151.73 273.26 143.31 269.69 C 134.88 266.13 126.51 262.50 117.31 259.69 C 108.10 256.89 99.06 255.02 88.98 253.02 C 78.89 251.03 83.69 234.44 83.00 224.00 C 82.31 213.56 83.31 200.13 83.00 189.00 C 82.69 177.87 83.14 165.47 83.00 154.00 C 82.86 142.53 83.07 130.67 83.00 119.00 C 82.93 107.33 83.06 94.76 83.00 83.00
C 96.23 83.23 112.32 84.70 124.67 87.33 C 137.02 89.96 149.16 94.12 160.22 98.78 C 171.28 103.43 181.60 108.21 191.23 114.77 C 200.86 121.33 210.07 126.12 217.75 135.25 C 225.43 144.38 234.92 148.34 240.25 159.75 C 245.58 171.16 240.74 190.89 242.00 205.00 C 243.26 219.11 241.41 237.06 242.00 252.00 C 242.59 266.94 241.69 283.71 242.00 299.00 C 242.31 314.29 241.77 330.62 242.00 346.00
M 413.00 253.00 
C 380.44 254.90 347.19 270.08 319.92 285.92 C 292.65 301.76 274.38 323.53 254.00 346.00
C 253.98 333.04 254.02 319.95 254.00 307.00 C 253.98 294.05 254.04 280.90 254.00 268.00 C 253.96 255.10 254.09 240.67 254.00 228.00 C 253.91 215.33 254.20 201.09 254.00 189.00 C 253.80 176.91 252.19 163.11 259.75 154.75 C 267.31 146.40 271.14 142.09 278.75 134.75 C 286.37 127.41 292.65 122.75 301.08 117.08 C 309.52 111.41 316.76 107.44 326.22 103.22 C 335.68 99.01 344.73 95.37 355.02 92.02 C 365.32 88.68 375.71 87.44 387.00 85.00 C 398.30 82.56 415.49 79.47 413.00 95.00 C 410.51 110.53 414.10 119.78 413.00 134.00 C 411.90 148.22 413.53 160.32 413.00 174.00 C 412.47 187.68 413.27 199.55 413.00 213.00 C 412.73 226.45 413.20 239.58 413.00 253.00 Z"/>
</g>
<g fill="#FEFDFD" fill-opacity="1.00" stroke="None">
<path d="
M 242.00 346.00 
C 241.77 330.62 242.31 314.29 242.00 299.00 C 241.69 283.71 242.59 266.94 242.00 252.00 C 241.41 237.06 243.26 219.11 242.00 205.00 C 240.74 190.89 245.58 171.16 240.25 159.75 C 234.92 148.34 225.43 144.38 217.75 135.25 C 210.07 126.12 200.86 121.33 191.23 114.77 C 181.60 108.21 171.28 103.43 160.22 98.78 C 149.16 94.12 137.02 89.96 124.67 87.33 C 112.32 84.70 96.23 83.23 83.00 83.00
C 83.06 94.76 82.93 107.33 83.00 119.00 C 83.07 130.67 82.86 142.53 83.00 154.00 C 83.14 165.47 82.69 177.87 83.00 189.00 C 83.31 200.13 82.31 213.56 83.00 224.00 C 83.69 234.44 78.89 251.03 88.98 253.02 C 99.06 255.02 108.10 256.89 117.31 259.69 C 126.51 262.50 134.88 266.13 143.31 269.69 C 151.73 273.26 159.16 276.94 166.92 281.08 C 174.68 285.22 181.35 289.70 188.25 294.75 C 195.16 299.79 201.44 304.61 207.75 310.25 C 214.06 315.89 219.84 321.08 225.75 327.25 C 231.67 333.42 235.15 340.75 242.00 346.00 Z"/>
</g>
<g fill="#FEFDFC" fill-opacity="1.00" stroke="None">
<path d="
M 413.00 253.00 
C 413.20 239.58 412.73 226.45 413.00 213.00 C 413.27 199.55 412.47 187.68 413.00 174.00 C 413.53 160.32 411.90 148.22 413.00 134.00 C 414.10 119.78 410.51 110.53 413.00 95.00 C 415.49 79.47 398.30 82.56 387.00 85.00 C 375.71 87.44 365.32 88.68 355.02 92.02 C 344.73 95.37 335.68 99.01 326.22 103.22 C 316.76 107.44 309.52 111.41 301.08 117.08 C 292.65 122.75 286.37 127.41 278.75 134.75 C 271.14 142.09 267.31 146.40 259.75 154.75 C 252.19 163.11 253.80 176.91 254.00 189.00 C 254.20 201.09 253.91 215.33 254.00 228.00 C 254.09 240.67 253.96 255.10 254.00 268.00 C 254.04 280.90 253.98 294.05 254.00 307.00 C 254.02 319.95 253.98 333.04 254.00 346.00
C 274.38 323.53 292.65 301.76 319.92 285.92 C 347.19 270.08 380.44 254.90 413.00 253.00 Z"/>
</g>
<g fill="#C4AA7E" fill-opacity="1.00" stroke="None">
<path d="
M 414.00 315.00 
C 426.65 315.00 441.05 317.97 439.00 303.00 C 436.95 288.03 439.90 279.58 439.00 266.00 C 438.10 252.42 439.42 240.99 439.00 228.00 C 438.58 215.01 439.20 203.69 439.00 191.00 C 438.80 178.31 439.10 166.62 439.00 154.00 C 438.90 141.38 439.08 128.63 439.00 116.00
C 444.67 116.00 450.33 116.00 456.00 116.00
C 456.66 125.50 454.67 136.32 457.00 145.00
C 457.00 135.00 457.00 125.00 457.00 115.00
C 450.67 115.00 444.33 115.00 438.00 115.00
C 438.00 181.33 438.00 247.67 438.00 314.00
C 430.04 313.44 421.24 314.30 414.00 315.00 Z"/>
</g>
<g fill="#B69355" fill-opacity="1.00" stroke="None">
<path d="
M 414.00 315.00 
C 357.31 320.48 301.01 348.00 267.00 396.00
C 318.03 348.08 386.89 328.18 457.00 331.00
C 457.00 269.00 457.00 207.00 457.00 145.00
C 454.67 136.32 456.66 125.50 456.00 116.00
C 450.33 116.00 444.67 116.00 439.00 116.00
C 439.08 128.63 438.90 141.38 439.00 154.00 C 439.10 166.62 438.80 178.31 439.00 191.00 C 439.20 203.69 438.58 215.01 439.00 228.00 C 439.42 240.99 438.10 252.42 439.00 266.00 C 439.90 279.58 436.95 288.03 439.00 303.00 C 441.05 317.97 426.65 315.00 414.00 315.00 Z"/>
</g>
<g fill="#B69456" fill-opacity="1.00" stroke="None">
<path d="
M 207.00 377.00 
C 214.16 381.62 220.51 387.38 227.00 393.00
C 221.49 382.13 209.52 374.79 202.00 365.00
C 161.22 333.03 112.20 311.81 59.00 313.00
C 59.00 247.67 59.00 182.33 59.00 117.00
C 52.33 117.00 45.67 117.00 39.00 117.00
C 39.00 188.33 39.00 259.67 39.00 331.00
C 100.73 326.81 156.93 344.70 207.00 377.00 Z"/>
</g>
<g fill="#B79356" fill-opacity="1.00" stroke="None">
<path d="
M 26.00 146.00 
C 12.96 143.60 1.82 145.47 4.00 159.00 C 6.18 172.53 3.05 180.61 4.00 193.00 C 4.95 205.39 3.56 216.09 4.00 228.00 C 4.44 239.91 3.80 250.33 4.00 262.00 C 4.20 273.67 3.91 285.45 4.00 297.00 C 4.09 308.55 3.95 319.56 4.00 331.00 C 4.05 342.44 3.96 353.58 4.00 365.00
C 16.70 365.10 31.52 364.87 44.00 365.00 C 56.48 365.13 69.42 366.33 81.00 368.00 C 92.57 369.68 104.45 370.64 114.93 374.07 C 125.40 377.51 135.06 380.35 144.78 384.22 C 154.49 388.09 163.00 392.05 171.75 397.25 C 180.51 402.44 187.19 407.17 194.75 414.25 C 202.32 421.33 208.88 424.37 214.70 434.30 C 220.52 444.24 232.18 436.65 243.00 436.00 C 253.82 435.36 266.28 437.82 276.00 442.00
C 323.81 374.80 413.62 359.04 492.00 367.00
C 492.03 355.32 491.96 343.68 492.00 332.00 C 492.04 320.32 491.92 308.70 492.00 297.00 C 492.08 285.30 491.82 273.73 492.00 262.00 C 492.18 250.27 491.60 239.93 492.00 228.00 C 492.40 216.07 491.14 205.38 492.00 193.00 C 492.86 180.62 490.11 171.31 492.00 158.00 C 493.89 144.69 482.32 144.21 470.00 146.00
C 470.04 156.37 469.95 166.61 470.00 177.00 C 470.05 187.39 469.90 197.56 470.00 208.00 C 470.10 218.44 469.79 228.44 470.00 239.00 C 470.21 249.56 469.54 259.17 470.00 270.00 C 470.46 280.83 468.99 289.57 470.00 301.00 C 471.01 312.43 467.77 319.25 470.00 332.00 C 472.23 344.75 463.78 345.82 453.00 344.00 C 442.22 342.18 431.88 344.17 422.00 344.00 C 412.13 343.83 402.98 345.65 394.07 347.07 C 385.17 348.50 377.63 351.71 369.22 353.22 C 360.81 354.73 353.83 358.67 346.08 361.08 C 338.32 363.48 332.11 367.67 325.08 371.08 C 318.04 374.48 311.33 377.53 305.08 382.08 C 298.83 386.63 292.18 388.88 286.70 394.70 C 281.21 400.52 275.06 401.61 270.92 409.92 C 266.78 418.23 258.55 417.37 250.00 416.00 C 241.45 414.63 229.66 420.10 225.30 411.70 C 220.94 403.29 216.60 401.29 210.70 395.30 C 204.79 389.32 199.09 387.12 192.75 382.25 C 186.40 377.39 179.67 375.20 172.69 371.31 C 165.72 367.41 158.76 364.81 151.23 361.77 C 143.70 358.73 136.84 355.62 128.67 353.33 C 120.51 351.03 111.98 349.66 103.22 347.78 C 94.46 345.90 84.58 345.51 75.00 345.00 C 65.42 344.49 56.24 342.49 46.00 343.00 C 35.76 343.51 23.78 344.58 26.00 332.00 C 28.22 319.42 25.00 312.35 26.00 301.00 C 27.00 289.65 25.55 280.79 26.00 270.00 C 26.45 259.21 25.79 249.54 26.00 239.00 C 26.21 228.46 25.90 218.43 26.00 208.00 C 26.10 197.57 25.95 187.38 26.00 177.00 C 26.05 166.62 25.96 156.37 26.00 146.00 Z"/>
</g>
<g fill="#B79559" fill-opacity="1.00" stroke="None">
<path d="
M 239.00 389.00 
C 209.60 324.44 139.85 281.97 71.00 276.00
C 69.94 287.06 68.75 302.36 81.00 302.00 C 93.25 301.65 100.99 304.95 111.33 306.67 C 121.66 308.39 128.87 312.12 137.92 315.08 C 146.98 318.03 154.23 321.67 162.31 325.69 C 170.38 329.72 177.32 334.00 184.77 338.23 C 192.22 342.46 198.50 347.83 205.25 352.75 C 212.00 357.67 217.30 363.83 223.25 369.75 C 229.19 375.68 233.68 382.84 239.00 389.00 Z"/>
</g>
<g fill="#B7965A" fill-opacity="1.00" stroke="None">
<path d="
M 425.00 276.00 
C 355.16 281.16 286.97 325.05 257.00 390.00
C 263.41 384.33 266.87 376.04 272.75 369.75 C 278.63 363.46 284.19 358.23 290.75 352.75 C 297.32 347.27 303.82 342.64 311.25 338.25 C 318.69 333.86 324.93 328.89 333.31 325.31 C 341.68 321.72 349.79 317.86 358.93 314.93 C 368.06 311.99 376.03 308.84 386.33 307.33 C 396.62 305.82 404.95 301.63 417.00 303.00 C 429.05 304.37 424.41 285.17 425.00 276.00 Z"/>
</g>
<g fill="#EEE5D0" fill-opacity="1.00" stroke="None">
<path d="
M 207.00 377.00 
C 215.36 384.08 223.69 392.24 232.00 400.00
C 226.89 388.29 214.00 373.40 202.00 365.00
C 209.52 374.79 221.49 382.13 227.00 393.00
C 220.51 387.38 214.16 381.62 207.00 377.00 Z"/>
</g>
</svg>